<svg width="171" height="42" viewBox="0 0 171 42" fill="none" xmlns="http://www.w3.org/2000/svg">
<path d="M22.0246 33.1115C22.0605 29.4401 21.1297 26.4545 19.9457 26.4429C18.7616 26.4314 17.7727 29.3983 17.7368 33.0696C17.7009 36.7411 18.6317 39.7267 19.8157 39.7383C20.9998 39.7499 21.9888 36.783 22.0246 33.1115Z" fill="#640EF1"/>
<path d="M15.1577 32.2777C17.173 29.2086 18.0043 26.1937 17.0145 25.5438C16.0247 24.8939 13.5886 26.855 11.5734 29.9241C9.55809 32.9933 8.72681 36.0081 9.71657 36.6581C10.7064 37.308 13.1424 35.3469 15.1577 32.2777Z" fill="#640EF1"/>
<path d="M9.82346 27.8744C13.1782 26.3822 15.5075 24.2955 15.0263 23.2136C14.5451 22.1316 11.4355 22.4643 8.08074 23.9565C4.72605 25.4487 2.39667 27.5354 2.87791 28.6173C3.35914 29.6992 6.46877 29.3666 9.82346 27.8744Z" fill="#640EF1"/>
<path d="M14.6236 20.1796C14.8037 19.0093 12.008 17.6078 8.37917 17.0492C4.75028 16.4907 1.66249 16.9867 1.48236 18.157C1.30223 19.3273 4.09797 20.7287 7.72684 21.2873C11.3557 21.8459 14.4435 21.3499 14.6236 20.1796Z" fill="#640EF1"/>
<path d="M15.9263 17.3916C16.7105 16.5044 15.1159 13.814 12.3648 11.3826C9.61369 8.95118 6.74778 7.69937 5.96364 8.58662C5.1795 9.47389 6.77406 12.1642 9.52521 14.5956C12.2763 17.0271 15.1422 18.2788 15.9263 17.3916Z" fill="#640EF1"/>
<path d="M18.5212 15.7622C19.6606 15.4398 19.7738 12.3144 18.7741 8.78158C17.7744 5.24871 16.0404 2.64612 14.901 2.96853C13.7616 3.29093 13.6484 6.41624 14.6481 9.94915C15.6478 13.4819 17.3819 16.0846 18.5212 15.7622Z" fill="#640EF1"/>
<path d="M25.5668 10.0591C26.636 6.54661 26.5845 3.41967 25.4517 3.07486C24.3189 2.73004 22.5338 5.29793 21.4646 8.8104C20.3955 12.3229 20.447 15.4498 21.5798 15.7946C22.7126 16.1394 24.4977 13.5716 25.5668 10.0591Z" fill="#640EF1"/>
<path d="M30.6011 14.8052C33.3993 12.428 35.0461 9.76935 34.2794 8.86698C33.5128 7.96458 30.6229 9.16015 27.8249 11.5373C25.0267 13.9145 23.3799 16.5731 24.1465 17.4755C24.9132 18.3779 27.803 17.1824 30.6011 14.8052Z" fill="#640EF1"/>
<path d="M32.2658 21.5215C35.905 21.0347 38.7278 19.6886 38.5708 18.5149C38.4138 17.3413 35.3364 16.7846 31.6972 17.2714C28.0581 17.7583 25.2352 19.1043 25.3922 20.278C25.5493 21.4516 28.6266 22.0084 32.2658 21.5215Z" fill="#640EF1"/>
<path d="M36.9602 28.9528C37.4627 27.8806 35.1749 25.7484 31.8503 24.1903C28.5257 22.6322 25.4232 22.2384 24.9208 23.3105C24.4183 24.3828 26.706 26.515 30.0307 28.0731C33.3552 29.6311 36.4577 30.025 36.9602 28.9528Z" fill="#640EF1"/>
<path d="M29.9671 36.8639C30.9695 36.2336 30.1978 33.2029 28.2435 30.0947C26.2892 26.9864 23.8922 24.9777 22.8898 25.608C21.8874 26.2382 22.6591 29.2689 24.6134 32.3772C26.5678 35.4854 28.9647 37.4942 29.9671 36.8639Z" fill="#640EF1"/>
<path d="M52.524 11.344V31H47.736V11.344H52.524ZM65.5138 15.208C67.3431 15.208 68.7991 15.8053 69.8818 17C70.9831 18.176 71.5338 19.8 71.5338 21.872V31H66.7738V22.516C66.7738 21.4707 66.5031 20.6587 65.9618 20.08C65.4205 19.5013 64.6925 19.212 63.7778 19.212C62.8631 19.212 62.1351 19.5013 61.5938 20.08C61.0525 20.6587 60.7818 21.4707 60.7818 22.516V31H55.9938V15.376H60.7818V17.448C61.2671 16.7573 61.9205 16.216 62.7418 15.824C63.5631 15.4133 64.4871 15.208 65.5138 15.208ZM81.217 31.224C79.8543 31.224 78.641 30.9907 77.577 30.524C76.513 30.0573 75.673 29.4227 75.057 28.62C74.441 27.7987 74.0957 26.884 74.021 25.876H78.753C78.809 26.4173 79.061 26.856 79.509 27.192C79.957 27.528 80.5077 27.696 81.161 27.696C81.7583 27.696 82.2157 27.584 82.533 27.36C82.869 27.1173 83.037 26.8093 83.037 26.436C83.037 25.988 82.8037 25.6613 82.337 25.456C81.8703 25.232 81.1143 24.9893 80.069 24.728C78.949 24.4667 78.0157 24.196 77.269 23.916C76.5223 23.6173 75.8783 23.16 75.337 22.544C74.7957 21.9093 74.525 21.06 74.525 19.996C74.525 19.1 74.7677 18.288 75.253 17.56C75.757 16.8133 76.485 16.2253 77.437 15.796C78.4077 15.3667 79.5557 15.152 80.881 15.152C82.841 15.152 84.381 15.6373 85.501 16.608C86.6397 17.5787 87.293 18.8667 87.461 20.472H83.037C82.9623 19.9307 82.7197 19.5013 82.309 19.184C81.917 18.8667 81.3943 18.708 80.741 18.708C80.181 18.708 79.7517 18.82 79.453 19.044C79.1543 19.2493 79.005 19.5387 79.005 19.912C79.005 20.36 79.2383 20.696 79.705 20.92C80.1903 21.144 80.937 21.368 81.945 21.592C83.1023 21.8907 84.045 22.1893 84.773 22.488C85.501 22.768 86.1357 23.2347 86.677 23.888C87.237 24.5227 87.5263 25.3813 87.545 26.464C87.545 27.3787 87.2837 28.2 86.761 28.928C86.257 29.6373 85.5197 30.1973 84.549 30.608C83.597 31.0187 82.4863 31.224 81.217 31.224ZM105.902 15.376V31H101.114V28.872C100.629 29.5627 99.9663 30.1227 99.1263 30.552C98.3049 30.9627 97.3903 31.168 96.3823 31.168C95.1876 31.168 94.1329 30.9067 93.2183 30.384C92.3036 29.8427 91.5943 29.068 91.0903 28.06C90.5863 27.052 90.3343 25.8667 90.3343 24.504V15.376H95.0943V23.86C95.0943 24.9053 95.3649 25.7173 95.9063 26.296C96.4476 26.8747 97.1756 27.164 98.0903 27.164C99.0236 27.164 99.7609 26.8747 100.302 26.296C100.844 25.7173 101.114 24.9053 101.114 23.86V15.376H105.902ZM114.129 17.98C114.689 17.1213 115.389 16.4493 116.229 15.964C117.069 15.46 118.003 15.208 119.029 15.208V20.276H117.713C116.519 20.276 115.623 20.5373 115.025 21.06C114.428 21.564 114.129 22.46 114.129 23.748V31H109.341V15.376H114.129V17.98ZM128.43 31.224C126.899 31.224 125.518 30.8973 124.286 30.244C123.073 29.5907 122.111 28.6573 121.402 27.444C120.711 26.2307 120.366 24.812 120.366 23.188C120.366 21.5827 120.721 20.1733 121.43 18.96C122.139 17.728 123.11 16.7853 124.342 16.132C125.574 15.4787 126.955 15.152 128.486 15.152C130.017 15.152 131.398 15.4787 132.63 16.132C133.862 16.7853 134.833 17.728 135.542 18.96C136.251 20.1733 136.606 21.5827 136.606 23.188C136.606 24.7933 136.242 26.212 135.514 27.444C134.805 28.6573 133.825 29.5907 132.574 30.244C131.342 30.8973 129.961 31.224 128.43 31.224ZM128.43 27.08C129.345 27.08 130.119 26.744 130.754 26.072C131.407 25.4 131.734 24.4387 131.734 23.188C131.734 21.9373 131.417 20.976 130.782 20.304C130.166 19.632 129.401 19.296 128.486 19.296C127.553 19.296 126.778 19.632 126.162 20.304C125.546 20.9573 125.238 21.9187 125.238 23.188C125.238 24.4387 125.537 25.4 126.134 26.072C126.75 26.744 127.515 27.08 128.43 27.08ZM145.502 31.224C144.139 31.224 142.926 30.9907 141.862 30.524C140.798 30.0573 139.958 29.4227 139.342 28.62C138.726 27.7987 138.381 26.884 138.306 25.876H143.038C143.094 26.4173 143.346 26.856 143.794 27.192C144.242 27.528 144.793 27.696 145.446 27.696C146.043 27.696 146.501 27.584 146.818 27.36C147.154 27.1173 147.322 26.8093 147.322 26.436C147.322 25.988 147.089 25.6613 146.622 25.456C146.155 25.232 145.399 24.9893 144.354 24.728C143.234 24.4667 142.301 24.196 141.554 23.916C140.807 23.6173 140.163 23.16 139.622 22.544C139.081 21.9093 138.81 21.06 138.81 19.996C138.81 19.1 139.053 18.288 139.538 17.56C140.042 16.8133 140.77 16.2253 141.722 15.796C142.693 15.3667 143.841 15.152 145.166 15.152C147.126 15.152 148.666 15.6373 149.786 16.608C150.925 17.5787 151.578 18.8667 151.746 20.472H147.322C147.247 19.9307 147.005 19.5013 146.594 19.184C146.202 18.8667 145.679 18.708 145.026 18.708C144.466 18.708 144.037 18.82 143.738 19.044C143.439 19.2493 143.29 19.5387 143.29 19.912C143.29 20.36 143.523 20.696 143.99 20.92C144.475 21.144 145.222 21.368 146.23 21.592C147.387 21.8907 148.33 22.1893 149.058 22.488C149.786 22.768 150.421 23.2347 150.962 23.888C151.522 24.5227 151.811 25.3813 151.83 26.464C151.83 27.3787 151.569 28.2 151.046 28.928C150.542 29.6373 149.805 30.1973 148.834 30.608C147.882 31.0187 146.771 31.224 145.502 31.224ZM161.871 31.224C160.341 31.224 158.959 30.8973 157.727 30.244C156.514 29.5907 155.553 28.6573 154.843 27.444C154.153 26.2307 153.807 24.812 153.807 23.188C153.807 21.5827 154.162 20.1733 154.871 18.96C155.581 17.728 156.551 16.7853 157.783 16.132C159.015 15.4787 160.397 15.152 161.927 15.152C163.458 15.152 164.839 15.4787 166.071 16.132C167.303 16.7853 168.274 17.728 168.983 18.96C169.693 20.1733 170.047 21.5827 170.047 23.188C170.047 24.7933 169.683 26.212 168.955 27.444C168.246 28.6573 167.266 29.5907 166.015 30.244C164.783 30.8973 163.402 31.224 161.871 31.224ZM161.871 27.08C162.786 27.08 163.561 26.744 164.195 26.072C164.849 25.4 165.175 24.4387 165.175 23.188C165.175 21.9373 164.858 20.976 164.223 20.304C163.607 19.632 162.842 19.296 161.927 19.296C160.994 19.296 160.219 19.632 159.603 20.304C158.987 20.9573 158.679 21.9187 158.679 23.188C158.679 24.4387 158.978 25.4 159.575 26.072C160.191 26.744 160.957 27.08 161.871 27.08Z" fill="#080C2E"/>
</svg>
